<svg width="74" height="74" viewBox="0 0 74 74" fill="none" xmlns="http://www.w3.org/2000/svg">
<circle cx="37" cy="37" r="37" fill="#363636" fill-opacity="0.3"/>
<mask id="mask0_347_138" style="mask-type:luminance" maskUnits="userSpaceOnUse" x="14" y="15" width="46" height="44">
<path d="M31.0462 56.9699C27.6004 55.9411 24.4797 54.0377 21.9878 51.4449C22.7896 50.494 23.2894 49.3255 23.4232 48.0889C23.5571 46.8524 23.319 45.604 22.7393 44.5035C22.1597 43.403 21.2649 42.5005 20.1694 41.9115C19.0739 41.3225 17.8276 41.0737 16.5899 41.197C16.308 39.8159 16.1663 38.4098 16.167 37.0001C16.167 34.823 16.5003 32.723 17.1212 30.7501H17.2087C18.2709 30.7505 19.3157 30.4801 20.2444 29.9645C21.1731 29.4488 21.9551 28.705 22.5165 27.8032C23.0779 26.9015 23.4002 25.8715 23.453 24.8106C23.5057 23.7496 23.2872 22.6927 22.818 21.7397C25.2603 19.4656 28.2139 17.8124 31.4295 16.9199C31.9528 17.9474 32.7502 18.8101 33.7334 19.4126C34.7165 20.015 35.8472 20.3337 37.0003 20.3335C38.1534 20.3337 39.2841 20.015 40.2673 19.4126C41.2505 18.8101 42.0478 17.9474 42.5712 16.9199C45.7867 17.8124 48.7403 19.4656 51.1826 21.7397C50.71 22.6994 50.4917 23.7643 50.5485 24.8326C50.6053 25.9008 50.9353 26.9366 51.507 27.8408C52.0787 28.745 52.8728 29.4873 53.8135 29.9967C54.7542 30.5061 55.8099 30.7655 56.8795 30.7501C57.5138 32.7728 57.8356 34.8804 57.8337 37.0001C57.8337 38.4376 57.6878 39.8418 57.4107 41.198C56.1731 41.0747 54.9268 41.3235 53.8313 41.9125C52.7358 42.5016 51.841 43.4041 51.2613 44.5045C50.6817 45.605 50.4436 46.8534 50.5774 48.09C50.7113 49.3265 51.2111 50.4951 52.0128 51.446C49.5209 54.0384 46.4002 55.9414 42.9545 56.9699C42.5499 55.7088 41.7552 54.6087 40.6852 53.8282C39.6151 53.0477 38.3248 52.6272 37.0003 52.6272C35.6759 52.6272 34.3856 53.0477 33.3155 53.8282C32.2454 54.6087 31.4508 55.7088 31.0462 56.9699Z" fill="white" stroke="white" stroke-width="3.33333" stroke-linejoin="round"/>
<path d="M37.0007 44.2913C37.9582 44.2913 38.9064 44.1027 39.791 43.7363C40.6757 43.3699 41.4795 42.8328 42.1566 42.1557C42.8337 41.4786 43.3708 40.6747 43.7373 39.7901C44.1037 38.9054 44.2923 37.9572 44.2923 36.9997C44.2923 36.0421 44.1037 35.0939 43.7373 34.2093C43.3708 33.3246 42.8337 32.5208 42.1566 31.8437C41.4795 31.1666 40.6757 30.6295 39.791 30.2631C38.9064 29.8966 37.9582 29.708 37.0007 29.708C35.0668 29.708 33.2121 30.4762 31.8447 31.8437C30.4772 33.2111 29.709 35.0658 29.709 36.9997C29.709 38.9335 30.4772 40.7882 31.8447 42.1557C33.2121 43.5231 35.0668 44.2913 37.0007 44.2913Z" fill="black" stroke="black" stroke-width="3.33333" stroke-linejoin="round"/>
</mask>
<g mask="url(#mask0_347_138)">
<path d="M12 12H62V62H12V12Z" fill="white" fill-opacity="0.8"/>
</g>
</svg>
