<svg width="74" height="78" viewBox="0 0 74 78" fill="none" xmlns="http://www.w3.org/2000/svg">
<circle cx="37" cy="41" r="37" fill="#363636" fill-opacity="0.4"/>
<path d="M41.504 57.136H44.896C45.8347 57.136 46.5813 57.3067 47.136 57.648C47.6907 57.9893 47.968 58.6507 47.968 59.632C47.968 60.3147 47.776 60.8907 47.392 61.36C47.0507 61.7867 46.6027 62 46.048 62H33.952C33.44 62 32.9067 61.9787 32.352 61.936C31.84 61.8933 31.3707 61.808 30.944 61.68C30.56 61.5093 30.2187 61.2747 29.92 60.976C29.664 60.6773 29.536 60.2507 29.536 59.696C29.536 58.8853 29.856 58.3093 30.496 57.968C31.136 57.584 32.0107 57.3493 33.12 57.264C33.8027 57.1787 34.3787 57.0507 34.848 56.88C35.36 56.7093 35.6373 56.3893 35.68 55.92C35.7227 55.4507 35.744 54.8533 35.744 54.128C35.7867 53.4027 35.808 52.6773 35.808 51.952C35.8507 51.184 35.872 50.48 35.872 49.84C35.9147 49.2 35.936 48.7093 35.936 48.368C35.936 46.9173 35.9147 45.6587 35.872 44.592C35.8293 43.4827 35.7653 42.224 35.68 40.816C35.6373 40.2187 35.5307 39.728 35.36 39.344C35.232 38.9173 34.9333 38.704 34.464 38.704C34.336 38.704 34.0587 38.7253 33.632 38.768C33.2053 38.768 32.7573 38.768 32.288 38.768C31.8187 38.768 31.3707 38.7893 30.944 38.832C30.5173 38.832 30.24 38.832 30.112 38.832C29.3867 38.832 28.8747 38.64 28.576 38.256C28.2773 37.8293 28.128 37.3173 28.128 36.72C28.128 35.8667 28.4907 35.2907 29.216 34.992C29.984 34.6933 31.328 34.48 33.248 34.352C34.4853 34.2667 35.7013 34.2027 36.896 34.16C38.0907 34.1173 39.0507 34.096 39.776 34.096C40.416 34.096 40.864 34.3093 41.12 34.736C41.376 35.12 41.504 35.6533 41.504 36.336V57.136ZM33.888 24.88C33.888 24.496 33.9733 24.048 34.144 23.536C34.3147 23.024 34.5707 22.5333 34.912 22.064C35.2533 21.5947 35.7013 21.2107 36.256 20.912C36.8107 20.5707 37.472 20.4 38.24 20.4C39.3067 20.4 40.224 20.784 40.992 21.552C41.76 22.2773 42.144 23.3013 42.144 24.624C42.144 25.52 41.9947 26.2667 41.696 26.864C41.44 27.4613 41.0773 27.952 40.608 28.336C40.1813 28.72 39.712 28.9973 39.2 29.168C38.688 29.3387 38.2187 29.424 37.792 29.424C36.6827 29.424 35.744 28.9973 34.976 28.144C34.2507 27.248 33.888 26.16 33.888 24.88Z" fill="white" fill-opacity="0.8"/>
</svg>
